# xmcd
#
# Track frame offsets: 
#        150
#        40658
#        74495
#        109315
#        138612
#        189122
#        212972
#        217236
#        243136
#
# Disc length: 4210 seconds
#
# Revision: 2
# Processed by: cddbd v1.5.2PL0 Copyright (c) Steve Scherf et al.
# Submitted via: ExactAudioCopyFreeDBPlugin 1.0
#
DISCID=8b107009
DTITLE=Walter Trout Power Trio - Hardcore
DYEAR=2007
DGENRE=Blues
TTITLE0=Gotta Leave This Town
TTITLE1=Tellin Stories
TTITLE2=Finally Gotten Over You
TTITLE3=Give Me Back My Wig
TTITLE4=The Reason I'm Gone
TTITLE5=Not Fade Away
TTITLE6=Channelling Neil Young
TTITLE7=Sittin On Top Of The World
TTITLE8=Tribute To Muddy Waters
EXTD=
EXTT0=
EXTT1=
EXTT2=
EXTT3=
EXTT4=
EXTT5=
EXTT6=
EXTT7=
EXTT8=
PLAYORDER=
